<svg xmlns="http://www.w3.org/2000/svg" width="200" height="74" fill="none"><g clip-path="url(#a)"><mask id="b" width="200" height="74" x="0" y="0" maskUnits="userSpaceOnUse" style="mask-type:luminance"><path fill="#fff" d="M0 0h200v73.77H0z"/></mask><g mask="url(#b)"><mask id="c" width="65" height="65" x="7" y="4" maskUnits="userSpaceOnUse" style="mask-type:luminance"><path fill="#fff" d="M7.725 4.887H71.66v63.935H7.725z"/></mask><g fill="#f94615" mask="url(#c)"><path d="M56.245 58.326a.33.33 0 0 1-.333-.33.33.33 0 0 1 .333-.328.329.329 0 1 1 0 .658m-5.134 3.105a.515.515 0 0 1-.517-.514c0-.282.231-.513.517-.513s.517.23.517.513a.516.516 0 0 1-.517.514m-5.678 1.839a.7.7 0 0 1-.702-.696c0-.386.314-.698.702-.698s.702.312.702.698a.7.7 0 0 1-.702.696m-5.91.49a.884.884 0 0 1-.887-.882c0-.487.396-.88.886-.88s.887.393.887.88a.884.884 0 0 1-.887.882m-5.827-.87a1.07 1.07 0 0 1-1.073-1.065c0-.587.48-1.065 1.073-1.065s1.072.478 1.072 1.065c0 .588-.48 1.064-1.072 1.064m-5.417-2.188a1.25 1.25 0 0 1-1.257-1.248c0-.69.563-1.249 1.257-1.249.695 0 1.258.56 1.258 1.25 0 .689-.563 1.247-1.258 1.247m-4.715-3.378a1.43 1.43 0 0 1-1.433-1.422c0-.785.642-1.422 1.433-1.422.792 0 1.433.637 1.433 1.422s-.641 1.422-1.433 1.422m-3.763-4.423a1.54 1.54 0 0 1-1.543-1.532c0-.847.691-1.53 1.543-1.53s1.543.683 1.543 1.53c0 .846-.691 1.532-1.543 1.532m-2.605-5.193a1.62 1.62 0 0 1-1.625-1.613c0-.89.727-1.613 1.625-1.613.897 0 1.623.722 1.623 1.613 0 .89-.726 1.613-1.623 1.613m-1.298-5.697a1.654 1.654 0 0 1-1.661-1.648c0-.913.743-1.65 1.661-1.65s1.661.737 1.661 1.65c0 .91-.743 1.648-1.661 1.648m.07-5.88a1.656 1.656 0 0 1-1.662-1.649c0-.91.745-1.648 1.662-1.648s1.66.738 1.66 1.648c0 .912-.743 1.65-1.66 1.65m1.433-5.74a1.617 1.617 0 0 1-1.623-1.611c0-.89.727-1.613 1.623-1.613.897 0 1.623.723 1.623 1.613 0 .889-.726 1.61-1.623 1.61m2.733-5.296c-.85 0-1.54-.686-1.54-1.53s.69-1.529 1.54-1.529 1.54.685 1.54 1.529-.69 1.53-1.54 1.53m3.87-4.554a1.425 1.425 0 0 1-1.428-1.42c0-.783.64-1.418 1.429-1.418.788 0 1.428.635 1.428 1.418s-.64 1.42-1.428 1.42m4.797-3.619c-.689 0-1.248-.555-1.248-1.24s.559-1.24 1.248-1.24c.69 0 1.25.555 1.25 1.24s-.56 1.24-1.25 1.24m5.47-2.426a1.06 1.06 0 0 1-1.062-1.056 1.06 1.06 0 0 1 1.063-1.055 1.06 1.06 0 0 1 1.062 1.055 1.06 1.06 0 0 1-1.063 1.056m5.85-1.102a.874.874 0 0 1-.877-.87c0-.48.392-.87.877-.87.484 0 .876.39.876.87s-.392.87-.876.87m5.905.258a.687.687 0 0 1-.691-.684c0-.379.31-.686.69-.686.382 0 .691.307.691.686 0 .378-.309.684-.69.684m5.638 1.606a.501.501 0 1 1 0-1 .501.501 0 1 1 0 1m5.064 2.858a.32.32 0 0 1-.319-.316c0-.174.144-.315.319-.315s.318.141.318.315a.32.32 0 0 1-.318.316m4.218 3.987a.185.185 0 0 1-.184-.184.184.184 0 1 1 .184.184M55.192 53.63a.259.259 0 1 1 .1-.498.26.26 0 0 1 .16.24.26.26 0 0 1-.26.258m-4.92 3.474a.48.48 0 0 1-.483-.478.48.48 0 0 1 .482-.478.48.48 0 0 1 .483.478.48.48 0 0 1-.483.478m-5.636 1.989a.7.7 0 0 1-.705-.7c0-.386.315-.7.705-.7s.704.314.704.7c0 .387-.316.7-.705.7m-5.916.367a.925.925 0 0 1-.928-.92c0-.51.416-.923.928-.923s.927.413.927.922c0 .508-.415.92-.927.92m-5.725-1.264c-.635 0-1.15-.512-1.15-1.143 0-.63.515-1.141 1.15-1.141s1.15.511 1.15 1.141c0 .631-.515 1.143-1.15 1.143m-5.078-2.788a1.37 1.37 0 0 1-1.374-1.363 1.37 1.37 0 0 1 1.374-1.363c.758 0 1.373.61 1.373 1.363s-.615 1.363-1.373 1.363m-4.042-4.134a1.52 1.52 0 0 1-1.524-1.514c0-.835.683-1.513 1.524-1.513s1.523.678 1.523 1.514c0 .835-.682 1.513-1.523 1.513m-2.69-5.128a1.62 1.62 0 0 1-1.626-1.614c0-.89.728-1.613 1.626-1.613a1.62 1.62 0 0 1 1.624 1.613 1.62 1.62 0 0 1-1.624 1.614m-1.117-5.726c-.922 0-1.67-.742-1.67-1.657 0-.917.748-1.66 1.67-1.66.923 0 1.671.743 1.671 1.66 0 .915-.748 1.657-1.67 1.657m.533-5.877c-.91 0-1.644-.73-1.644-1.632s.735-1.633 1.644-1.633 1.643.732 1.643 1.633-.735 1.632-1.643 1.632m2.153-5.54c-.873 0-1.581-.702-1.581-1.568s.708-1.57 1.58-1.57 1.581.703 1.581 1.57c0 .866-.708 1.568-1.58 1.568m3.596-4.794a1.44 1.44 0 0 1-1.445-1.436 1.44 1.44 0 0 1 1.445-1.435 1.44 1.44 0 0 1 1.447 1.435 1.44 1.44 0 0 1-1.447 1.436m4.752-3.696c-.685 0-1.24-.553-1.24-1.233s.555-1.232 1.24-1.232c.686 0 1.241.551 1.241 1.232s-.556 1.233-1.24 1.233m5.543-2.267a1.013 1.013 0 0 1-1.016-1.01c0-.557.454-1.01 1.016-1.01s1.018.453 1.018 1.01c0 .558-.456 1.01-1.018 1.01m5.898-.657a.79.79 0 0 1-.793-.788.79.79 0 0 1 .793-.787.79.79 0 0 1 .793.787.79.79 0 0 1-.793.788m5.793.976a.566.566 0 0 1-.57-.563c0-.313.255-.565.57-.565s.569.252.569.565a.566.566 0 0 1-.57.563m5.224 2.533a.344.344 0 0 1-.345-.342c0-.189.154-.341.345-.341s.344.152.344.341a.344.344 0 0 1-.344.343m4.25 3.914a.175.175 0 0 1-.178-.175.177.177 0 0 1 .355 0c0 .098-.08.175-.178.175M53.96 48.747a.194.194 0 0 1-.195-.193.195.195 0 1 1 .376.074.2.2 0 0 1-.18.119m-4.556 3.96a.43.43 0 0 1-.43-.427c0-.236.193-.426.43-.426s.43.19.43.426a.43.43 0 0 1-.43.427m-5.57 2.21a.707.707 0 0 1-.71-.705c0-.388.318-.703.71-.703s.708.315.708.703c0 .389-.317.704-.708.704m-5.906.181a.986.986 0 0 1-.989-.982c0-.543.443-.981.99-.981.545 0 .987.438.987.98a.985.985 0 0 1-.988.983m-5.513-1.844c-.7 0-1.268-.564-1.268-1.26 0-.695.568-1.257 1.268-1.257s1.268.562 1.268 1.258c0 .695-.569 1.26-1.268 1.26m-4.43-3.65a1.49 1.49 0 0 1-1.494-1.486c0-.82.669-1.484 1.495-1.484a1.49 1.49 0 0 1 1.495 1.484c0 .82-.67 1.485-1.495 1.485m-2.81-5.024a1.62 1.62 0 0 1-1.627-1.615c0-.893.729-1.616 1.626-1.616a1.62 1.62 0 0 1 1.627 1.616c0 .89-.728 1.615-1.627 1.615m-.839-5.755a1.67 1.67 0 0 1-1.677-1.665c0-.919.751-1.665 1.677-1.665s1.677.746 1.677 1.666c0 .918-.75 1.663-1.677 1.663m1.227-5.797c-.895 0-1.619-.72-1.619-1.607 0-.888.724-1.608 1.62-1.608.894 0 1.618.72 1.618 1.608 0 .887-.724 1.607-1.619 1.607m3.154-5.103a1.467 1.467 0 0 1-1.472-1.462c0-.807.66-1.461 1.472-1.461.813 0 1.473.654 1.473 1.46 0 .809-.66 1.463-1.473 1.463m4.679-3.819a1.223 1.223 0 0 1-1.229-1.219c0-.672.55-1.217 1.229-1.217.678 0 1.228.545 1.228 1.217 0 .674-.55 1.22-1.228 1.22m5.634-2.024a.944.944 0 0 1-.947-.939c0-.52.425-.94.947-.94.523 0 .947.42.947.94a.943.943 0 0 1-.947.938m5.898.012a.663.663 0 0 1-.665-.66c0-.365.298-.662.665-.662s.666.297.666.662c0 .364-.298.66-.666.66m5.426 2.015a.383.383 0 0 1-.385-.382.384.384 0 0 1 .769 0 .38.38 0 0 1-.384.382m4.3 3.801a.17.17 0 0 1-.153-.102.166.166 0 0 1 .154-.23c.091 0 .166.074.166.166a.167.167 0 0 1-.166.166M29.228 41.634a.05.05 0 0 1-.036-.014.05.05 0 0 1-.015-.036.051.051 0 0 1 .103 0 .05.05 0 0 1-.052.05m1.799 3.675a.16.16 0 0 1-.16-.16.16.16 0 0 1 .16-.158c.088 0 .16.07.16.158a.16.16 0 0 1-.16.16m2.795 2.936a.34.34 0 0 1-.342-.34c0-.186.154-.338.343-.338a.34.34 0 0 1 .341.339.34.34 0 0 1-.342.34m3.517 2.01a.59.59 0 0 1-.592-.586.59.59 0 0 1 .592-.589.59.59 0 0 1 .592.589.59.59 0 0 1-.592.587m3.9.836a.84.84 0 0 1-.841-.837c0-.462.376-.836.842-.836s.842.374.842.836a.84.84 0 0 1-.842.837m3.892-.39a1.09 1.09 0 0 1-1.093-1.086c0-.599.49-1.084 1.093-1.084.604 0 1.092.485 1.092 1.084s-.488 1.086-1.092 1.086m3.492-1.562a1.337 1.337 0 0 1-1.342-1.332c0-.737.601-1.333 1.343-1.333.741 0 1.342.596 1.342 1.333 0 .736-.6 1.332-1.343 1.332m2.758-2.615c-.84 0-1.522-.676-1.522-1.511S50.54 43.5 51.38 43.5c.84 0 1.522.678 1.522 1.513s-.681 1.51-1.522 1.51m1.75-3.482c-.9 0-1.63-.724-1.63-1.619 0-.893.73-1.618 1.63-1.618s1.63.725 1.63 1.618c0 .895-.73 1.62-1.63 1.62m.564-3.833c-.927 0-1.68-.746-1.68-1.667s.753-1.668 1.68-1.668c.928 0 1.68.747 1.68 1.668s-.752 1.667-1.68 1.667m-.671-3.908a1.623 1.623 0 0 1-1.629-1.618c0-.891.73-1.616 1.629-1.616s1.629.725 1.629 1.616c0 .894-.73 1.618-1.629 1.618m-1.847-3.568a1.51 1.51 0 0 1-1.516-1.504 1.51 1.51 0 0 1 1.516-1.506 1.51 1.51 0 0 1 1.515 1.506 1.51 1.51 0 0 1-1.515 1.504m-2.834-2.902c-.735 0-1.33-.592-1.33-1.32s.595-1.32 1.33-1.32 1.33.591 1.33 1.32c0 .728-.595 1.32-1.33 1.32M44.8 26.868c-.595 0-1.078-.479-1.078-1.07 0-.59.483-1.07 1.078-1.07s1.078.48 1.078 1.07-.483 1.07-1.078 1.07m-3.904-.782a.823.823 0 0 1-.825-.82c0-.452.37-.82.825-.82.456 0 .827.368.827.82 0 .453-.371.82-.827.82m-3.88.441a.57.57 0 0 1-.575-.57c0-.315.257-.57.574-.57.318 0 .574.255.574.57s-.256.57-.574.57m-3.469 1.607a.32.32 0 1 1 0-.64.32.32 0 1 1 0 .64m-2.719 2.742a.15.15 0 0 1-.137-.09.148.148 0 1 1 .284-.056.146.146 0 0 1-.147.146m-1.702 3.342-.018-.003a.05.05 0 0 1-.025-.025.04.04 0 0 1-.004-.018c0-.026.02-.046.047-.046.026 0 .046.02.046.046s-.02.046-.046.046"/></g><mask id="d" width="122" height="34" x="65" y="22" maskUnits="userSpaceOnUse" style="mask-type:luminance"><path fill="#fff" d="M186.066 22.95H65.738v32.624h120.328z"/></mask><g mask="url(#d)"><path fill="#fa4616" d="M75.809 46.697c-1.342 0-2.57-.174-3.643-.522-1.093-.348-1.955-.813-2.646-1.392a6.2 6.2 0 0 1-1.552-1.954 5 5 0 0 1-.537-2.282h2.914c.019 1.103.517 2.03 1.476 2.766.958.735 2.3 1.102 3.988 1.102 1.591 0 2.8-.29 3.642-.87.844-.58 1.266-1.373 1.266-2.398q0-1.537-1.266-2.205c-.843-.445-2.185-.812-4.025-1.083-1.036-.155-1.937-.329-2.704-.56a10 10 0 0 1-2.205-.948c-.69-.406-1.227-.929-1.59-1.586-.365-.657-.538-1.431-.538-2.32 0-1.567.614-2.844 1.84-3.85 1.228-1.005 2.992-1.508 5.273-1.508s4.141.503 5.54 1.528 2.11 2.34 2.11 3.945H80.16q-.087-1.421-1.323-2.262c-.825-.561-1.936-.851-3.336-.851s-2.358.27-3.067.831-1.055 1.257-1.055 2.108c0 .85.345 1.605 1.055 2.05.709.445 2.032.813 3.949 1.122.594.077 1.112.174 1.553.25.44.078.92.194 1.476.35.556.154 1.016.309 1.4.483s.767.406 1.17.677c.402.27.728.58.977.909.25.328.44.735.594 1.199q.23.696.23 1.566c0 1.818-.728 3.23-2.166 4.216s-3.393 1.47-5.828 1.47zm19.766-2.61c2.07 0 3.835-.677 5.273-2.031s2.166-3.075 2.166-5.163c0-2.09-.729-3.772-2.166-5.126-1.438-1.372-3.203-2.05-5.292-2.05-2.07 0-3.815.697-5.253 2.09s-2.166 3.094-2.166 5.086c0 1.991.728 3.751 2.185 5.124s3.202 2.07 5.272 2.07zm-10.468 8.45V27.61h2.914v4.216c.729-1.393 1.802-2.515 3.221-3.404 1.419-.87 3.01-1.315 4.793-1.315 1.86 0 3.566.425 5.1 1.295a9.54 9.54 0 0 1 3.604 3.559c.863 1.49 1.304 3.133 1.304 4.932a9.8 9.8 0 0 1-1.304 4.95 9.63 9.63 0 0 1-3.585 3.559c-1.534.87-3.22 1.295-5.061 1.295a9.3 9.3 0 0 1-4.736-1.257c-1.438-.831-2.511-1.953-3.24-3.365l.058 2.07v8.393zm32.804-8.47c2.089 0 3.853-.696 5.291-2.069s2.166-3.075 2.166-5.105-.728-3.714-2.186-5.087c-1.457-1.392-3.201-2.088-5.271-2.088-2.071 0-3.835.677-5.273 2.05-1.438 1.353-2.166 3.075-2.166 5.124 0 2.05.728 3.81 2.166 5.164s3.202 2.012 5.273 2.012m-.653 2.63c-1.802 0-3.47-.445-4.965-1.295a9.4 9.4 0 0 1-3.547-3.559c-.863-1.508-1.285-3.152-1.285-4.931 0-1.78.422-3.423 1.285-4.932.863-1.489 2.032-2.688 3.547-3.558 1.514-.87 3.163-1.296 4.947-1.296 1.783 0 3.508.426 4.965 1.277 1.457.85 2.549 1.992 3.259 3.442v-4.216h2.895v18.585h-2.895v-4.177c-.71 1.45-1.783 2.59-3.24 3.423-1.457.832-3.106 1.257-4.966 1.257zm20.764 0c-1.342 0-2.569-.174-3.643-.522q-1.61-.522-2.645-1.392a6.5 6.5 0 0 1-1.553-1.954 5 5 0 0 1-.537-2.282h2.914c.019 1.103.517 2.03 1.495 2.766.978.735 2.301 1.102 3.988 1.102 1.591 0 2.799-.29 3.643-.87s1.265-1.373 1.265-2.398q0-1.537-1.265-2.205c-.844-.445-2.186-.812-4.026-1.083-1.035-.155-1.937-.329-2.704-.56a10 10 0 0 1-2.204-.948c-.69-.406-1.227-.929-1.592-1.586-.364-.657-.536-1.431-.536-2.32 0-1.567.613-2.844 1.84-3.85 1.227-1.005 2.991-1.508 5.272-1.508s4.141.503 5.541 1.528c1.399 1.025 2.109 2.34 2.109 3.945h-2.99q-.087-1.421-1.324-2.262c-.824-.561-1.936-.851-3.336-.851s-2.357.27-3.067.831c-.709.561-1.055 1.257-1.055 2.108 0 .85.346 1.605 1.055 2.05.71.445 2.032.813 3.95 1.122.594.077 1.111.174 1.552.25.441.078.92.194 1.476.35.556.154 1.017.309 1.4.483a10 10 0 0 1 1.189.677c.403.27.728.58.978.909.249.328.44.735.594 1.199q.23.696.23 1.566c0 1.818-.729 3.23-2.167 4.216s-3.393 1.47-5.828 1.47zm17.83 0c-1.342 0-2.57-.174-3.643-.522q-1.611-.522-2.646-1.392a6.5 6.5 0 0 1-1.552-1.954 5 5 0 0 1-.537-2.282h2.913c.019 1.103.518 2.03 1.496 2.766.978.735 2.3 1.102 3.988 1.102 1.591 0 2.799-.29 3.643-.87s1.265-1.373 1.265-2.398q0-1.537-1.265-2.205c-.844-.445-2.186-.812-4.027-1.083-1.035-.155-1.936-.329-2.703-.56a10 10 0 0 1-2.205-.948c-.69-.406-1.226-.929-1.591-1.586-.364-.657-.536-1.431-.536-2.32 0-1.567.612-2.844 1.84-3.85 1.227-1.005 2.991-1.508 5.272-1.508s4.141.503 5.541 1.528c1.399 1.025 2.109 2.34 2.109 3.945h-2.991q-.085-1.421-1.323-2.262c-.824-.561-1.936-.851-3.336-.851s-2.358.27-3.067.831-1.055 1.257-1.055 2.108c0 .928.345 1.605 1.055 2.05.709.445 2.032.813 3.949 1.122.594.077 1.112.174 1.553.25.441.078.92.194 1.476.35a10 10 0 0 1 1.399.483c.384.174.768.406 1.19.677.402.27.728.58.977.909.249.328.441.735.594 1.199q.23.696.23 1.566c0 1.818-.728 3.23-2.166 4.216s-3.394 1.47-5.828 1.47zm18.328 0c-2.818 0-5.042-.754-6.672-2.282-1.629-1.509-2.454-3.81-2.454-6.885v-9.92h3.01v9.862c0 2.166.518 3.81 1.572 4.932 1.055 1.121 2.55 1.682 4.506 1.682 1.955 0 3.451-.56 4.505-1.663 1.055-1.122 1.572-2.765 1.572-4.931v-9.863h3.01v9.92c0 3.056-.824 5.357-2.454 6.885-1.629 1.528-3.834 2.282-6.595 2.282z"/></g></g><path fill="#000" d="M179.609 65.047q-1.224 0-2.196-.432-.972-.45-1.548-1.206a3.07 3.07 0 0 1-.612-1.674h2.538q.072.576.558.954.504.378 1.242.378.72 0 1.116-.288.414-.288.414-.738 0-.486-.504-.72-.486-.252-1.566-.54-1.116-.27-1.836-.558a3.26 3.26 0 0 1-1.224-.882q-.504-.594-.504-1.602 0-.828.468-1.512.486-.684 1.368-1.08.9-.396 2.106-.396 1.782 0 2.844.9 1.062.882 1.17 2.394h-2.412a1.26 1.26 0 0 0-.504-.936q-.432-.36-1.17-.36-.684 0-1.062.252a.81.81 0 0 0-.36.702q0 .504.504.774.504.252 1.566.522 1.08.27 1.782.558t1.206.9q.522.594.54 1.584 0 .864-.486 1.548-.468.684-1.368 1.08-.882.378-2.07.378M168.742 65.047q-1.44 0-2.592-.63a4.73 4.73 0 0 1-1.818-1.818q-.648-1.17-.648-2.7t.666-2.7a4.7 4.7 0 0 1 1.854-1.8q1.17-.648 2.61-.648t2.61.648q1.17.63 1.836 1.8.684 1.17.684 2.7t-.702 2.7a4.8 4.8 0 0 1-1.872 1.818q-1.17.63-2.628.63m0-2.196q.684 0 1.278-.324.612-.342.972-1.008t.36-1.62q0-1.422-.756-2.178a2.41 2.41 0 0 0-1.818-.774q-1.08 0-1.818.774-.72.756-.72 2.178t.702 2.196q.72.756 1.8.756M159.557 56.461a3.57 3.57 0 0 1 1.26-1.242q.792-.45 1.8-.45v2.646h-.666q-1.188 0-1.8.558-.594.558-.594 1.944v4.968h-2.52v-9.972h2.52zM150.419 62.563l2.52-7.65h2.682l-3.69 9.972h-3.06l-3.672-9.972h2.7z"/><path fill="#fa4616" d="M142.53 53.725q-.666 0-1.116-.414a1.44 1.44 0 0 1-.432-1.062q0-.63.432-1.044.45-.432 1.116-.432t1.098.432q.45.414.45 1.044t-.45 1.062q-.432.414-1.098.414"/><path fill="#000" d="M143.772 54.913v9.972h-2.52v-9.972zM138.762 51.565v13.32h-2.52v-13.32z"/></g><defs><clipPath id="a"><path fill="#fff" d="M0 0h200v73.77H0z"/></clipPath></defs></svg>